<svg width="118" height="48" viewBox="0 0 118 48" fill="none" xmlns="http://www.w3.org/2000/svg">
<path d="M9.68752 20.2805C8.35497 20.2805 7.09645 20.1232 5.91196 19.8086C4.74598 19.4754 3.73731 18.9942 2.88596 18.365C2.58984 18.1614 2.41402 17.9208 2.35849 17.6432C2.30297 17.3656 2.33073 17.1065 2.44178 16.8659C2.57133 16.6253 2.75641 16.4679 2.99701 16.3939C3.23761 16.3014 3.51522 16.3569 3.82985 16.5605C4.66269 17.1712 5.55106 17.6062 6.49495 17.8653C7.43884 18.1244 8.50303 18.2539 9.68752 18.2539C11.3532 18.2539 12.584 17.9486 13.3798 17.3378C14.1941 16.7085 14.6013 15.885 14.6013 14.867C14.6013 14.0527 14.3052 13.4049 13.7129 12.9237C13.1392 12.4425 12.1675 12.0631 10.798 11.7855L7.91078 11.2025C6.17107 10.8324 4.86628 10.2309 3.99642 9.39802C3.14507 8.54667 2.71939 7.41771 2.71939 6.01113C2.71939 4.84515 3.01551 3.82723 3.60776 2.95737C4.21851 2.08751 5.06061 1.41198 6.13405 0.930783C7.20749 0.449584 8.4475 0.208984 9.85408 0.208984C11.0201 0.208984 12.1028 0.375553 13.1022 0.708691C14.1201 1.02332 15.0362 1.50452 15.8506 2.15229C16.1097 2.35587 16.2577 2.59647 16.2947 2.87408C16.3503 3.13319 16.3133 3.37379 16.1837 3.59588C16.0541 3.81797 15.8691 3.96603 15.6285 4.04006C15.3879 4.09559 15.101 4.02156 14.7679 3.81797C14.0276 3.24424 13.2502 2.83707 12.4359 2.59647C11.6401 2.35587 10.7702 2.23557 9.82632 2.23557C8.36422 2.23557 7.19824 2.57796 6.32838 3.26274C5.45852 3.92902 5.02359 4.81739 5.02359 5.92784C5.02359 6.81621 5.29195 7.5195 5.82867 8.03771C6.3839 8.55593 7.28152 8.93533 8.52154 9.17593L11.4087 9.78669C13.278 10.1753 14.6568 10.7676 15.5452 11.5634C16.4521 12.3407 16.9055 13.4049 16.9055 14.756C16.9055 15.8479 16.6094 16.8103 16.0171 17.6432C15.4434 18.476 14.6105 19.1238 13.5186 19.5865C12.4452 20.0492 11.1681 20.2805 9.68752 20.2805Z" fill="#141514"/>
<path d="M26.2121 20.2805C24.0837 20.2805 22.3995 19.6605 21.1595 18.4205C19.9195 17.162 19.2995 15.4593 19.2995 13.3124C19.2995 11.9243 19.5771 10.7028 20.1323 9.64788C20.6876 8.57444 21.4464 7.75085 22.4088 7.17711C23.3897 6.58486 24.5186 6.28874 25.7957 6.28874C27.6279 6.28874 29.0623 6.88099 30.0987 8.06548C31.1351 9.23146 31.6533 10.8416 31.6533 12.896C31.6533 13.4697 31.3294 13.7566 30.6817 13.7566H21.4926C21.5667 15.2927 22.0109 16.4679 22.8252 17.2823C23.6395 18.0781 24.7685 18.476 26.2121 18.476C26.8228 18.476 27.4428 18.402 28.0721 18.2539C28.7014 18.0874 29.3121 17.8005 29.9044 17.3933C30.33 17.1157 30.6817 17.0602 30.9593 17.2268C31.2554 17.3933 31.4035 17.6524 31.4035 18.0041C31.422 18.3372 31.2369 18.6333 30.8482 18.8924C30.2375 19.3366 29.5064 19.679 28.6551 19.9196C27.8223 20.1602 27.0079 20.2805 26.2121 20.2805ZM25.8512 7.95443C24.5742 7.95443 23.5655 8.35234 22.8252 9.14817C22.0849 9.944 21.65 10.9897 21.5204 12.2852H29.71C29.6545 10.9157 29.2936 9.85146 28.6273 9.09265C27.9796 8.33384 27.0542 7.95443 25.8512 7.95443Z" fill="#141514"/>
<path d="M36.0459 20.225C35.2871 20.225 34.9077 19.8363 34.9077 19.059V7.48249C34.9077 6.72367 35.2686 6.34427 35.9904 6.34427C36.7307 6.34427 37.1009 6.72367 37.1009 7.48249V8.95384C37.471 8.10249 38.0448 7.45472 38.8221 7.01054C39.5994 6.54785 40.5248 6.298 41.5982 6.26098C42.1905 6.20546 42.5051 6.50158 42.5421 7.14935C42.5976 7.79712 42.2645 8.15801 41.5427 8.23204L41.0985 8.28757C39.8215 8.39861 38.8498 8.80578 38.1836 9.50907C37.5173 10.1939 37.1841 11.1377 37.1841 12.3407V19.059C37.1841 19.8363 36.8047 20.225 36.0459 20.225Z" fill="#141514"/>
<path d="M50.7226 20.225C50.0749 20.225 49.5937 19.8641 49.279 19.1423L44.4763 7.92667C44.2912 7.50099 44.282 7.13084 44.4485 6.81621C44.6151 6.50158 44.9482 6.34427 45.448 6.34427C45.9662 6.34427 46.3456 6.64039 46.5862 7.23263L50.7782 17.4766L55.0257 7.23263C55.1552 6.89949 55.3033 6.66815 55.4698 6.5386C55.6364 6.40904 55.877 6.34427 56.1916 6.34427C56.6173 6.34427 56.9042 6.50158 57.0522 6.81621C57.2003 7.13084 57.191 7.49174 57.0245 7.89891L52.1662 19.1423C51.8701 19.8641 51.3889 20.225 50.7226 20.225Z" fill="#141514"/>
<path d="M61.0957 3.29051C60.1147 3.29051 59.6243 2.82781 59.6243 1.90243C59.6243 0.995559 60.1147 0.542123 61.0957 0.542123C62.0766 0.542123 62.567 0.995559 62.567 1.90243C62.567 2.82781 62.0766 3.29051 61.0957 3.29051ZM61.0957 20.1695C60.3553 20.1695 59.9852 19.7623 59.9852 18.948V7.59353C59.9852 6.7977 60.3553 6.39979 61.0957 6.39979C61.8545 6.39979 62.2339 6.7977 62.2339 7.59353V18.948C62.2339 19.7623 61.8545 20.1695 61.0957 20.1695Z" fill="#141514"/>
<path d="M72.1564 20.2805C70.8054 20.2805 69.6394 19.9936 68.6585 19.4199C67.6776 18.8277 66.9188 18.0041 66.382 16.9491C65.8638 15.8757 65.6047 14.6264 65.6047 13.2013C65.6047 11.0545 66.1877 9.37026 67.3537 8.14876C68.5197 6.90875 70.1206 6.28874 72.1564 6.28874C72.8227 6.28874 73.5167 6.39979 74.2385 6.62188C74.9603 6.82546 75.6173 7.16786 76.2096 7.64905C76.5242 7.87115 76.6538 8.14876 76.5983 8.4819C76.5612 8.81503 76.4039 9.06489 76.1263 9.23146C75.8672 9.39803 75.5618 9.36101 75.2102 9.12041C74.7105 8.75026 74.2108 8.49115 73.7111 8.34309C73.2299 8.19503 72.7579 8.121 72.2952 8.121C70.8886 8.121 69.806 8.56518 69.0471 9.45355C68.2883 10.3234 67.9089 11.5819 67.9089 13.2291C67.9089 14.8393 68.2883 16.1163 69.0471 17.0602C69.806 17.9856 70.8886 18.4483 72.2952 18.4483C72.7579 18.4483 73.2299 18.3742 73.7111 18.2262C74.2108 18.0781 74.7105 17.819 75.2102 17.4488C75.5618 17.2082 75.8672 17.1805 76.1263 17.3656C76.3854 17.5321 76.5242 17.782 76.5427 18.1151C76.5797 18.4483 76.4502 18.7166 76.1541 18.9202C75.5618 19.4014 74.9141 19.753 74.2108 19.9751C73.5075 20.1787 72.8227 20.2805 72.1564 20.2805Z" fill="#141514"/>
<path d="M85.0967 20.2805C82.9683 20.2805 81.2842 19.6605 80.0441 18.4205C78.8041 17.162 78.1841 15.4593 78.1841 13.3124C78.1841 11.9243 78.4617 10.7028 79.017 9.64788C79.5722 8.57444 80.331 7.75085 81.2934 7.17711C82.2743 6.58486 83.4033 6.28874 84.6803 6.28874C86.5126 6.28874 87.9469 6.88099 88.9833 8.06548C90.0198 9.23146 90.538 10.8416 90.538 12.896C90.538 13.4697 90.2141 13.7566 89.5663 13.7566H80.3773C80.4513 15.2927 80.8955 16.4679 81.7098 17.2823C82.5242 18.0781 83.6531 18.476 85.0967 18.476C85.7075 18.476 86.3275 18.402 86.9567 18.2539C87.586 18.0874 88.1968 17.8005 88.789 17.3933C89.2147 17.1157 89.5663 17.0602 89.8439 17.2268C90.1401 17.3933 90.2881 17.6524 90.2881 18.0041C90.3066 18.3372 90.1216 18.6333 89.7329 18.8924C89.1221 19.3366 88.3911 19.679 87.5397 19.9196C86.7069 20.1602 85.8926 20.2805 85.0967 20.2805ZM84.7358 7.95443C83.4588 7.95443 82.4501 8.35234 81.7098 9.14817C80.9695 9.944 80.5346 10.9897 80.405 12.2852H88.5947C88.5391 10.9157 88.1782 9.85146 87.512 9.09265C86.8642 8.33384 85.9388 7.95443 84.7358 7.95443Z" fill="#141514"/>
<path d="M9.29886 47.3555C8.54004 47.3555 8.16064 46.9576 8.16064 46.1618V29.5604H1.91431C1.21102 29.5604 0.859375 29.2273 0.859375 28.561C0.859375 27.9132 1.21102 27.5893 1.91431 27.5893H16.7112C17.4145 27.5893 17.7661 27.9132 17.7661 28.561C17.7661 29.2273 17.4145 29.5604 16.7112 29.5604H10.4648V46.1618C10.4648 46.9576 10.0762 47.3555 9.29886 47.3555Z" fill="#141514"/>
<path d="M21.8856 47.411C20.9603 47.411 20.1274 47.2352 19.3871 46.8836C18.6653 46.5134 18.0916 46.0137 17.6659 45.3844C17.2402 44.7552 17.0274 44.0519 17.0274 43.2746C17.0274 42.2937 17.2772 41.5163 17.7769 40.9426C18.2952 40.3689 19.1373 39.9617 20.3032 39.7211C21.4877 39.462 23.0979 39.3324 25.1337 39.3324H26.0221V38.4718C26.0221 37.3244 25.7815 36.5008 25.3003 36.0011C24.8376 35.4829 24.088 35.2237 23.0516 35.2237C22.4039 35.2237 21.7468 35.307 21.0806 35.4736C20.4328 35.6402 19.7573 35.9085 19.054 36.2787C18.7393 36.4452 18.471 36.4823 18.2489 36.3897C18.0453 36.2787 17.8972 36.1121 17.8047 35.89C17.7307 35.6494 17.7307 35.4088 17.8047 35.1682C17.8972 34.9091 18.0823 34.7148 18.3599 34.5852C19.1558 34.1781 19.9516 33.8819 20.7474 33.6969C21.5618 33.5118 22.3298 33.4193 23.0516 33.4193C24.7913 33.4193 26.0776 33.8449 26.9105 34.6963C27.7618 35.5476 28.1875 36.8709 28.1875 38.6662V46.1895C28.1875 46.9668 27.8451 47.3555 27.1603 47.3555C26.4385 47.3555 26.0776 46.9668 26.0776 46.1895V44.8292C25.726 45.625 25.18 46.2543 24.4397 46.717C23.7179 47.1797 22.8665 47.411 21.8856 47.411ZM22.2465 45.7176C23.357 45.7176 24.2639 45.3382 24.9672 44.5793C25.6704 43.802 26.0221 42.8211 26.0221 41.6366V40.8038H25.1615C23.6624 40.8038 22.4779 40.8778 21.608 41.0259C20.7567 41.1554 20.1552 41.396 19.8035 41.7477C19.4704 42.0808 19.3038 42.5435 19.3038 43.1358C19.3038 43.8946 19.5629 44.5146 20.0811 44.9958C20.6179 45.477 21.3397 45.7176 22.2465 45.7176Z" fill="#141514"/>
<path d="M36.9122 47.411C36.0793 47.411 35.2372 47.3092 34.3859 47.1056C33.553 46.8836 32.7757 46.5319 32.0539 46.0507C31.7208 45.8471 31.5542 45.588 31.5542 45.2734C31.5727 44.9403 31.7023 44.6811 31.9429 44.4961C32.1835 44.311 32.4888 44.311 32.859 44.4961C33.5808 44.9403 34.2748 45.2549 34.9411 45.44C35.6259 45.6065 36.3014 45.6898 36.9677 45.6898C38.0226 45.6898 38.8185 45.4955 39.3552 45.1068C39.8919 44.7182 40.1603 44.1907 40.1603 43.5244C40.1603 43.0062 39.9844 42.599 39.6328 42.3029C39.2812 41.9883 38.7259 41.7477 37.9671 41.5811L35.4408 41.0259C33.1459 40.5262 31.9984 39.3417 31.9984 37.4724C31.9984 36.2509 32.4796 35.27 33.442 34.5297C34.4229 33.7894 35.6999 33.4193 37.2731 33.4193C38.0689 33.4193 38.837 33.5303 39.5773 33.7524C40.3176 33.956 40.9839 34.2891 41.5761 34.7518C41.8907 34.9739 42.0295 35.2423 41.9925 35.5569C41.9555 35.8715 41.8074 36.1214 41.5483 36.3064C41.3077 36.473 41.0116 36.4452 40.66 36.2232C40.1047 35.853 39.5403 35.5846 38.9665 35.4181C38.3928 35.233 37.8283 35.1405 37.2731 35.1405C36.2366 35.1405 35.4501 35.344 34.9133 35.7512C34.3766 36.1584 34.1083 36.6951 34.1083 37.3614C34.1083 38.3978 34.793 39.0641 36.1626 39.3602L38.6889 39.8877C39.8734 40.1468 40.771 40.5632 41.3818 41.1369C41.9925 41.6922 42.2979 42.451 42.2979 43.4134C42.2979 44.6534 41.8074 45.6343 40.8265 46.3561C39.8456 47.0594 38.5408 47.411 36.9122 47.411Z" fill="#141514"/>
<path d="M46.8909 47.3555C46.1506 47.3555 45.7804 46.9668 45.7804 46.1895V34.613C45.7804 33.8542 46.1413 33.4748 46.8631 33.4748C47.6034 33.4748 47.9736 33.8542 47.9736 34.613V35.9455C48.3808 35.1312 48.9452 34.5112 49.667 34.0855C50.3888 33.6413 51.2309 33.4193 52.1933 33.4193C54.3032 33.4193 55.6543 34.3354 56.2465 36.1676C56.6537 35.3163 57.2552 34.65 58.051 34.1688C58.8468 33.6691 59.763 33.4193 60.7994 33.4193C63.7976 33.4193 65.2967 35.196 65.2967 38.7494V46.1895C65.2967 46.9668 64.9173 47.3555 64.1585 47.3555C63.4182 47.3555 63.0481 46.9668 63.0481 46.1895V38.8605C63.0481 37.6205 62.826 36.7136 62.3818 36.1399C61.9561 35.5476 61.2436 35.2515 60.2442 35.2515C59.1522 35.2515 58.2823 35.6402 57.6346 36.4175C56.9868 37.1948 56.6629 38.2312 56.6629 39.5268V46.1895C56.6629 46.9668 56.2835 47.3555 55.5247 47.3555C54.7844 47.3555 54.4143 46.9668 54.4143 46.1895V38.8605C54.4143 37.6205 54.1922 36.7136 53.748 36.1399C53.3223 35.5476 52.6098 35.2515 51.6103 35.2515C50.4999 35.2515 49.6208 35.6402 48.973 36.4175C48.3437 37.1948 48.0291 38.2312 48.0291 39.5268V46.1895C48.0291 46.9668 47.6497 47.3555 46.8909 47.3555Z" fill="#141514"/>
<path d="M73.7486 47.411C72.8232 47.411 71.9904 47.2352 71.2501 46.8836C70.5283 46.5134 69.9545 46.0137 69.5288 45.3844C69.1032 44.7552 68.8903 44.0519 68.8903 43.2746C68.8903 42.2937 69.1402 41.5163 69.6399 40.9426C70.1581 40.3689 71.0002 39.9617 72.1662 39.7211C73.3507 39.462 74.9608 39.3324 76.9967 39.3324H77.885V38.4718C77.885 37.3244 77.6444 36.5008 77.1632 36.0011C76.7005 35.4829 75.951 35.2237 74.9146 35.2237C74.2668 35.2237 73.6098 35.307 72.9435 35.4736C72.2957 35.6402 71.6202 35.9085 70.9169 36.2787C70.6023 36.4452 70.3339 36.4823 70.1118 36.3897C69.9082 36.2787 69.7602 36.1121 69.6676 35.89C69.5936 35.6494 69.5936 35.4088 69.6676 35.1682C69.7602 34.9091 69.9453 34.7148 70.2229 34.5852C71.0187 34.1781 71.8145 33.8819 72.6104 33.6969C73.4247 33.5118 74.1928 33.4193 74.9146 33.4193C76.6543 33.4193 77.9406 33.8449 78.7734 34.6963C79.6248 35.5476 80.0504 36.8709 80.0504 38.6662V46.1895C80.0504 46.9668 79.708 47.3555 79.0233 47.3555C78.3015 47.3555 77.9406 46.9668 77.9406 46.1895V44.8292C77.5889 45.625 77.0429 46.2543 76.3026 46.717C75.5808 47.1797 74.7295 47.411 73.7486 47.411ZM74.1095 45.7176C75.2199 45.7176 76.1268 45.3382 76.8301 44.5793C77.5334 43.802 77.885 42.8211 77.885 41.6366V40.8038H77.0244C75.5253 40.8038 74.3408 40.8778 73.471 41.0259C72.6196 41.1554 72.0181 41.396 71.6665 41.7477C71.3333 42.0808 71.1668 42.5435 71.1668 43.1358C71.1668 43.8946 71.4259 44.5146 71.9441 44.9958C72.4808 45.477 73.2026 45.7176 74.1095 45.7176Z" fill="#141514"/>
<path d="M85.3327 47.3555C84.5924 47.3555 84.2222 46.9668 84.2222 46.1895V34.613C84.2222 33.8542 84.5831 33.4748 85.3049 33.4748C86.0452 33.4748 86.4154 33.8542 86.4154 34.613V35.9733C86.8596 35.122 87.4888 34.4834 88.3032 34.0578C89.1175 33.6321 90.0336 33.4193 91.0516 33.4193C94.2534 33.4193 95.8543 35.196 95.8543 38.7494V46.1895C95.8543 46.9668 95.4841 47.3555 94.7438 47.3555C93.985 47.3555 93.6056 46.9668 93.6056 46.1895V38.8883C93.6056 37.6297 93.3558 36.7136 92.856 36.1399C92.3749 35.5476 91.5975 35.2515 90.5241 35.2515C89.2841 35.2515 88.2939 35.6402 87.5536 36.4175C86.8318 37.1763 86.4709 38.1942 86.4709 39.4712V46.1895C86.4709 46.9668 86.0915 47.3555 85.3327 47.3555Z" fill="#141514"/>
<path d="M101.111 30.421C100.13 30.421 99.6398 29.9583 99.6398 29.0329C99.6398 28.1261 100.13 27.6726 101.111 27.6726C102.092 27.6726 102.583 28.1261 102.583 29.0329C102.583 29.9583 102.092 30.421 101.111 30.421ZM101.111 47.3C100.371 47.3 100.001 46.8928 100.001 46.0785V34.724C100.001 33.9282 100.371 33.5303 101.111 33.5303C101.87 33.5303 102.249 33.9282 102.249 34.724V46.0785C102.249 46.8928 101.87 47.3 101.111 47.3Z" fill="#141514"/>
<path d="M110.701 47.411C109.775 47.411 108.942 47.2352 108.202 46.8836C107.48 46.5134 106.907 46.0137 106.481 45.3844C106.055 44.7552 105.842 44.0519 105.842 43.2746C105.842 42.2937 106.092 41.5163 106.592 40.9426C107.11 40.3689 107.952 39.9617 109.118 39.7211C110.303 39.462 111.913 39.3324 113.949 39.3324H114.837V38.4718C114.837 37.3244 114.596 36.5008 114.115 36.0011C113.653 35.4829 112.903 35.2237 111.867 35.2237C111.219 35.2237 110.562 35.307 109.896 35.4736C109.248 35.6402 108.572 35.9085 107.869 36.2787C107.554 36.4452 107.286 36.4823 107.064 36.3897C106.86 36.2787 106.712 36.1121 106.62 35.89C106.546 35.6494 106.546 35.4088 106.62 35.1682C106.712 34.9091 106.897 34.7148 107.175 34.5852C107.971 34.1781 108.767 33.8819 109.562 33.6969C110.377 33.5118 111.145 33.4193 111.867 33.4193C113.606 33.4193 114.893 33.8449 115.725 34.6963C116.577 35.5476 117.002 36.8709 117.002 38.6662V46.1895C117.002 46.9668 116.66 47.3555 115.975 47.3555C115.253 47.3555 114.893 46.9668 114.893 46.1895V44.8292C114.541 45.625 113.995 46.2543 113.255 46.717C112.533 47.1797 111.681 47.411 110.701 47.411ZM111.061 45.7176C112.172 45.7176 113.079 45.3382 113.782 44.5793C114.485 43.802 114.837 42.8211 114.837 41.6366V40.8038H113.976C112.477 40.8038 111.293 40.8778 110.423 41.0259C109.572 41.1554 108.97 41.396 108.618 41.7477C108.285 42.0808 108.119 42.5435 108.119 43.1358C108.119 43.8946 108.378 44.5146 108.896 44.9958C109.433 45.477 110.155 45.7176 111.061 45.7176Z" fill="#141514"/>
</svg>
