<svg width="54" height="50" viewBox="0 0 54 50" fill="none" xmlns="http://www.w3.org/2000/svg">
<path d="M28.5273 24.9375C29.8451 25.4026 30.4362 25.4801 32.2966 25.3154C31.347 25.7902 31.7249 26.5363 30.2036 26.3522C28.789 26.1875 29.2347 25.6836 28.5273 24.9375Z" fill="#141514"/>
<path d="M17.6381 10.1562C17.6381 10.1562 17.5024 9.1969 15.0703 6.16406C18.5973 7.42371 19.4112 7.96633 21.5236 9.7589C19.6922 9.74921 17.6381 10.1562 17.6381 10.1562Z" fill="#141514"/>
<path d="M39.3811 10.2352C39.3811 10.2352 40.2338 6.53378 43.2085 3.12305C39.7202 4.654 37.9374 7.64808 37.1719 9.7701C38.3637 10.1092 39.3811 10.2352 39.3811 10.2352Z" fill="#141514"/>
<path d="M28.2849 16.2053C28.3915 16.2731 28.5465 16.3216 28.5853 16.4572L28.5659 16.4863C28.7597 17.2227 28.9147 18.0463 28.8372 18.8699C28.8178 18.8893 28.7791 18.899 28.7694 18.8796C27.6648 17.4843 26.5795 16.5347 25.3587 15.934C25.3296 15.9243 25.3974 15.8662 25.4265 15.8662L25.9497 15.7693C26.754 15.7402 27.5776 15.8855 28.2849 16.2053Z" fill="#141514"/>
<path d="M32.1703 16.2053C32.0638 16.2731 31.9087 16.3216 31.87 16.4572L31.8893 16.4863C31.6956 17.2227 31.5405 18.0463 31.618 18.8699C31.6374 18.8893 31.6762 18.899 31.6859 18.8796C32.7905 17.4843 33.8757 16.5347 35.0966 15.934C35.1257 15.9243 35.0578 15.8662 35.0288 15.8662L34.5055 15.7693C33.7013 15.7402 32.8777 15.8855 32.1703 16.2053Z" fill="#141514"/>
<path d="M22.6635 13.3571C22.6635 13.3571 26.5296 19.5972 27.1207 24.3838C19.4562 23.2211 15.4641 24.2966 11.7433 28.3081C10.9972 24.5679 11.3751 21.632 11.8305 19.8394C13.7781 21.0312 15.6385 22.7753 15.6385 22.7753C15.6385 22.7753 13.72 18.6766 11.9274 16.7387C12.5669 14.6361 14.0301 12.8144 14.0301 12.8144C14.0301 12.8144 17.6733 14.5779 19.6985 18.5701C19.2527 14.6845 18.0222 11.0703 18.0222 11.0703C18.0222 11.0703 19.5531 12.2137 22.6635 13.3571Z" fill="#141514"/>
<path d="M12.0078 29.3607C12.0078 29.3607 14.1201 26.5991 18.3351 26.1922C25.6217 25.4848 34.5264 34.0892 42.8207 23.3047C42.375 28.5371 37.1717 33.9342 28.2379 31.4439C23.4415 30.1068 21.5133 27.9848 17.7925 27.9557C14.2752 27.946 12.0078 29.3607 12.0078 29.3607Z" fill="#141514"/>
<path d="M39.0397 11.8906C38.2451 12.0941 36.4041 13.4991 36.4041 13.4991C36.4041 13.4991 35.7258 15.1173 34.7859 18.8574C33.9623 22.1422 33.3906 25.1654 33.3906 25.1654C33.3906 25.1654 39.2916 24.9037 41.9272 22.2585C40.7353 20.3012 42.0144 16.1347 43.2837 14.5165C40.7353 15.4564 38.6036 19.0222 38.6036 19.0222C38.6036 19.0222 37.6734 14.7781 39.0397 11.8906Z" fill="#141514"/>
<path d="M24.1094 8.2778C24.1094 8.2778 25.9988 6.18485 29.6421 6.03951C33.5373 5.87478 34.4288 6.7856 34.4288 6.7856C34.4288 6.7856 32.985 3.84966 31.5413 3.64618C29.9037 3.42332 28.4116 4.00469 27.3069 4.64421C26.1054 5.33217 25.0105 6.07826 24.1094 8.2778Z" fill="#141514"/>
<path d="M24.1288 0.605175C24.1288 0.605175 26.5609 0.459831 28.8477 1.20593C25.311 1.90358 22.4816 4.9558 21.4351 7.88205C21.3867 5.49842 20.8828 2.59154 24.1288 0.605175Z" fill="#141514"/>
<path d="M9.43008 34.2988H7.14333V39.9381H6.29065V34.2988H4.00391V33.543H9.43008V34.2988Z" fill="#141514"/>
<path d="M12.9387 39.932H12.1345V39.4185C12.0666 39.4669 11.9697 39.5347 11.8438 39.6219C11.7178 39.7091 11.6015 39.777 11.4853 39.8254C11.3496 39.8932 11.1946 39.9417 11.0202 39.9901C10.8457 40.0386 10.6423 40.058 10.4097 40.058C9.97368 40.058 9.61516 39.9126 9.31479 39.6316C9.01441 39.3409 8.85938 38.9824 8.85938 38.5367C8.85938 38.1685 8.93689 37.8778 9.09193 37.6549C9.24696 37.4321 9.46982 37.2577 9.76051 37.122C10.0512 36.9961 10.4 36.9089 10.8167 36.8604C11.2236 36.812 11.6694 36.7829 12.1345 36.7538V36.6279C12.1345 36.4438 12.1054 36.2887 12.0376 36.1724C11.9697 36.0562 11.8825 35.9593 11.7566 35.8914C11.6403 35.8236 11.5046 35.7849 11.3399 35.7558C11.1752 35.7364 11.0105 35.717 10.8361 35.717C10.6229 35.717 10.3903 35.7461 10.1287 35.8042C9.86709 35.8624 9.59578 35.9399 9.32448 36.0465H9.28572V35.2229C9.44075 35.1841 9.6733 35.1357 9.96399 35.0775C10.2644 35.0291 10.5551 35 10.8457 35C11.1849 35 11.4756 35.0291 11.7275 35.0872C11.9794 35.1453 12.1926 35.2422 12.3767 35.3682C12.5608 35.5039 12.6965 35.6686 12.7933 35.8818C12.8902 36.0949 12.9387 36.3469 12.9387 36.6569V39.932V39.932ZM12.1345 38.7499V37.4127C11.8922 37.4321 11.6015 37.4515 11.2624 37.4805C10.9329 37.5096 10.6616 37.5484 10.4678 37.6065C10.2353 37.6743 10.0512 37.7712 9.90585 37.9166C9.76051 38.0522 9.69268 38.246 9.69268 38.4883C9.69268 38.7596 9.77989 38.9727 9.94461 39.1084C10.1093 39.244 10.3613 39.3216 10.7004 39.3216C10.9814 39.3216 11.243 39.2634 11.4756 39.1568C11.7178 39.0406 11.9407 38.9049 12.1345 38.7499Z" fill="#141514"/>
<path d="M17.7616 38.5464C17.7616 38.9824 17.5775 39.3409 17.219 39.6219C16.8605 39.9029 16.3663 40.0386 15.7365 40.0386C15.378 40.0386 15.0582 39.9998 14.7578 39.9126C14.4574 39.8254 14.2152 39.7382 14.0117 39.6316V38.7208H14.0505C14.3024 38.9146 14.5931 39.0696 14.9032 39.1762C15.2132 39.2925 15.5136 39.3506 15.8043 39.3506C16.1628 39.3506 16.4341 39.2925 16.6376 39.1762C16.8411 39.0599 16.938 38.8855 16.938 38.6336C16.938 38.4398 16.8798 38.3041 16.7733 38.2073C16.6667 38.1104 16.4535 38.0232 16.1434 37.9553C16.0272 37.9263 15.8818 37.8972 15.6977 37.8681C15.5136 37.8294 15.3489 37.8003 15.1938 37.7518C14.7772 37.6356 14.4768 37.4805 14.3024 37.2577C14.128 37.0445 14.0408 36.7732 14.0408 36.4631C14.0408 36.2693 14.0795 36.0755 14.1668 35.9011C14.2443 35.7267 14.3702 35.5717 14.535 35.436C14.6997 35.3004 14.9032 35.1938 15.1454 35.1163C15.3973 35.0388 15.6686 35 15.9787 35C16.2694 35 16.5504 35.0388 16.8508 35.1066C17.1415 35.1744 17.3837 35.2616 17.5872 35.3585V36.2209H17.5484C17.3449 36.0659 17.093 35.9399 16.7926 35.8333C16.5019 35.7267 16.2113 35.6783 15.9206 35.6783C15.6299 35.6783 15.378 35.7364 15.1745 35.8527C14.971 35.969 14.8644 36.1337 14.8644 36.3565C14.8644 36.5503 14.9225 36.7054 15.0485 36.8023C15.1648 36.8992 15.3683 36.9864 15.6299 37.0445C15.7752 37.0833 15.9496 37.1123 16.1337 37.1511C16.3178 37.1898 16.4729 37.2189 16.5988 37.248C16.9767 37.3352 17.2674 37.4805 17.4709 37.6937C17.6647 37.9166 17.7616 38.1976 17.7616 38.5464Z" fill="#141514"/>
<path d="M25.7734 39.9379H24.9691V37.2055C24.9691 37.002 24.9595 36.7985 24.9401 36.6047C24.9207 36.4109 24.8819 36.2559 24.8238 36.1493C24.756 36.0233 24.6591 35.9361 24.5428 35.8683C24.4168 35.8005 24.2424 35.7714 24.0099 35.7714C23.787 35.7714 23.5545 35.8296 23.3316 35.9458C23.1087 36.0621 22.8762 36.2074 22.6533 36.3819C22.663 36.4497 22.6727 36.5272 22.6727 36.6144C22.6824 36.7016 22.6824 36.7888 22.6824 36.876V39.9476H21.8782V37.2152C21.8782 37.002 21.8685 36.7985 21.8491 36.6144C21.8297 36.4206 21.791 36.2753 21.7328 36.159C21.665 36.033 21.5681 35.9458 21.4518 35.878C21.3259 35.8199 21.1514 35.7811 20.9189 35.7811C20.696 35.7811 20.4732 35.8392 20.26 35.9458C20.0371 36.0524 19.8143 36.1978 19.6011 36.3625V39.9476H18.7969V35.1513H19.6011V35.6842C19.853 35.471 20.105 35.316 20.3569 35.19C20.6088 35.0738 20.8704 35.0156 21.1611 35.0156C21.4906 35.0156 21.7619 35.0835 21.9944 35.2191C22.2173 35.3548 22.3917 35.5486 22.508 35.7908C22.8374 35.5195 23.1281 35.316 23.3994 35.1997C23.6707 35.0738 23.9614 35.0156 24.2618 35.0156C24.785 35.0156 25.1726 35.1707 25.4246 35.4904C25.6765 35.8102 25.8024 36.2559 25.8024 36.8276V39.9379H25.7734Z" fill="#141514"/>
<path d="M30.8137 39.932H30.0095V39.4185C29.9416 39.4669 29.8447 39.5347 29.7188 39.6219C29.5928 39.7091 29.4765 39.777 29.3603 39.8254C29.2246 39.8932 29.0696 39.9417 28.8952 39.9901C28.7207 40.0386 28.5173 40.058 28.2847 40.058C27.8487 40.058 27.4902 39.9126 27.1898 39.6316C26.8894 39.3409 26.7344 38.9824 26.7344 38.5367C26.7344 38.1685 26.8119 37.8778 26.9669 37.6549C27.122 37.4321 27.3448 37.2577 27.6355 37.122C27.9262 36.9961 28.275 36.9089 28.6917 36.8604C29.0986 36.812 29.5444 36.7829 30.0095 36.7538V36.6279C30.0095 36.4438 29.9804 36.2887 29.9126 36.1724C29.8447 36.0562 29.7575 35.9593 29.6316 35.8914C29.5153 35.8236 29.3796 35.7849 29.2149 35.7558C29.0502 35.7364 28.8855 35.717 28.7111 35.717C28.4979 35.717 28.2653 35.7461 28.0037 35.8042C27.7421 35.8624 27.4708 35.9399 27.1995 36.0465H27.1607V35.2229C27.3157 35.1841 27.5483 35.1357 27.839 35.0775C28.1394 35.0291 28.4301 35 28.7207 35C29.0599 35 29.3506 35.0291 29.6025 35.0872C29.8544 35.1453 30.0676 35.2422 30.2517 35.3682C30.4358 35.5039 30.5714 35.6686 30.6683 35.8818C30.7652 36.0949 30.8137 36.3469 30.8137 36.6569V39.932ZM30.0095 38.7499V37.4127C29.7672 37.4321 29.4765 37.4515 29.1374 37.4805C28.8079 37.5096 28.5366 37.5484 28.3428 37.6065C28.1103 37.6743 27.9262 37.7712 27.7808 37.9166C27.6355 38.0522 27.5677 38.246 27.5677 38.4883C27.5677 38.7596 27.6549 38.9727 27.8196 39.1084C27.9843 39.244 28.2363 39.3216 28.5754 39.3216C28.8564 39.3216 29.118 39.2634 29.3506 39.1568C29.5928 39.0406 29.8157 38.9049 30.0095 38.7499Z" fill="#141514"/>
<path d="M36.1424 39.9359H35.3382V37.2034C35.3382 36.9806 35.3285 36.7771 35.2994 36.5833C35.2704 36.3895 35.2219 36.2442 35.1541 36.1279C35.0863 36.0116 34.9797 35.9147 34.844 35.8566C34.7084 35.7985 34.534 35.7694 34.3208 35.7694C34.0979 35.7694 33.8654 35.8275 33.6328 35.9341C33.3906 36.0407 33.158 36.186 32.9449 36.3508V39.9359H32.1406V35.1396H32.9449V35.6725C33.1968 35.4593 33.4584 35.3043 33.7297 35.1783C34.001 35.062 34.2723 35.0039 34.563 35.0039C35.0766 35.0039 35.4738 35.1589 35.7452 35.469C36.0165 35.7791 36.1521 36.2345 36.1521 36.8159V39.9359H36.1424Z" fill="#141514"/>
<path d="M38.3014 34.3333H37.3906V33.5H38.3014V34.3333ZM38.253 39.9339H37.4488V35.1375H38.253V39.9339Z" fill="#141514"/>
<path d="M43.3215 39.9359H42.5173V39.4224C42.4494 39.4708 42.3525 39.5386 42.2266 39.6258C42.1006 39.713 41.9843 39.7809 41.8681 39.8293C41.7324 39.8971 41.5774 39.9456 41.403 39.994C41.2286 40.0425 41.0251 40.0619 40.7925 40.0619C40.3565 40.0619 39.998 39.9165 39.6976 39.6355C39.3972 39.3448 39.2422 38.9863 39.2422 38.5406C39.2422 38.1724 39.3197 37.8817 39.4747 37.6589C39.6298 37.436 39.8526 37.2616 40.1433 37.1259C40.434 37 40.7828 36.9128 41.1995 36.8643C41.6064 36.8159 42.0522 36.7868 42.5173 36.7577V36.6318C42.5173 36.4477 42.4882 36.2926 42.4204 36.1763C42.3525 36.0601 42.2653 35.9632 42.1394 35.8953C42.0231 35.8275 41.8874 35.7888 41.7227 35.7597C41.558 35.7403 41.3933 35.7209 41.2189 35.7209C41.0057 35.7209 40.7731 35.75 40.5115 35.8081C40.2499 35.8663 39.9786 35.9438 39.7073 36.0504H39.6588V35.2268C39.8139 35.188 40.0464 35.1396 40.3468 35.0814C40.6472 35.033 40.9379 35.0039 41.2286 35.0039C41.5677 35.0039 41.8584 35.033 42.1103 35.0911C42.3622 35.1493 42.5754 35.2461 42.7595 35.3721C42.9436 35.5078 43.0793 35.6725 43.1762 35.8857C43.2731 36.0988 43.3215 36.3508 43.3215 36.6608V39.9359ZM42.5173 38.7538V37.4166C42.275 37.436 41.9843 37.4554 41.6452 37.4844C41.3158 37.5135 41.0445 37.5523 40.8507 37.6104C40.6181 37.6782 40.434 37.7751 40.2887 37.9205C40.1433 38.0561 40.0755 38.2499 40.0755 38.4922C40.0755 38.7635 40.1627 38.9766 40.3274 39.1123C40.4921 39.2479 40.7441 39.3255 41.0832 39.3255C41.3642 39.3255 41.6258 39.2673 41.8584 39.1607C42.1006 39.0445 42.3138 38.9088 42.5173 38.7538Z" fill="#141514"/>
<path d="M48.6424 39.9359H47.8382V37.2034C47.8382 36.9806 47.8285 36.7771 47.7994 36.5833C47.7704 36.3895 47.7219 36.2442 47.6541 36.1279C47.5863 36.0116 47.4797 35.9147 47.344 35.8566C47.2084 35.7985 47.034 35.7694 46.8208 35.7694C46.5979 35.7694 46.3654 35.8275 46.1328 35.9341C45.8906 36.0407 45.658 36.186 45.4449 36.3508V39.9359H44.6406V35.1396H45.4449V35.6725C45.6968 35.4593 45.9584 35.3043 46.2297 35.1783C46.501 35.062 46.7723 35.0039 47.063 35.0039C47.5766 35.0039 47.9738 35.1589 48.2452 35.469C48.5165 35.7791 48.6521 36.2345 48.6521 36.8159V39.9359H48.6424Z" fill="#141514"/>
<path d="M6.42607 48.4349C6.07724 48.5996 5.69935 48.7353 5.2827 48.8516C4.86605 48.9678 4.46877 49.026 4.08119 49.026C3.58702 49.026 3.12192 48.9581 2.71496 48.8225C2.2983 48.6868 1.94948 48.4833 1.65879 48.2023C1.3681 47.9214 1.13555 47.5725 0.980521 47.1559C0.815798 46.7392 0.738281 46.2547 0.738281 45.6927C0.738281 44.6753 1.03866 43.8614 1.62972 43.2703C2.23048 42.6793 3.0444 42.3789 4.09088 42.3789C4.45908 42.3789 4.82729 42.4274 5.20518 42.5146C5.58307 42.6018 5.99004 42.7471 6.43576 42.9603V43.968H6.35824C6.27103 43.9002 6.14507 43.813 5.97066 43.6967C5.80593 43.5804 5.63152 43.4932 5.47649 43.4157C5.2827 43.3285 5.05015 43.251 4.80791 43.1928C4.55598 43.1347 4.27498 43.1056 3.95522 43.1056C3.23819 43.1056 2.6762 43.3382 2.25955 43.7936C1.84289 44.249 1.62972 44.8788 1.62972 45.6637C1.62972 46.4873 1.84289 47.1365 2.27893 47.5919C2.71496 48.0473 3.30602 48.2799 4.06181 48.2799C4.33312 48.2799 4.61412 48.2508 4.88542 48.2023C5.15673 48.1442 5.39897 48.0764 5.60245 47.9892V46.4195H3.86802V45.6734H6.42607V48.4349Z" fill="#141514"/>
<path d="M11.8344 46.5055C11.8344 47.2904 11.6309 47.9008 11.2336 48.3563C10.8364 48.8117 10.2937 49.0345 9.62517 49.0345C8.9469 49.0345 8.40428 48.8117 8.007 48.3563C7.60973 47.9008 7.40625 47.2904 7.40625 46.5055C7.40625 45.7207 7.60973 45.1102 8.007 44.6548C8.40428 44.1994 8.9469 43.9766 9.62517 43.9766C10.2937 43.9766 10.8364 44.1994 11.2336 44.6548C11.6309 45.1102 11.8344 45.7304 11.8344 46.5055ZM11.0011 46.5055C11.0011 45.8854 10.8751 45.4203 10.6329 45.1199C10.3906 44.8196 10.0515 44.6645 9.61548 44.6645C9.17944 44.6645 8.84031 44.8196 8.59807 45.1199C8.35583 45.4203 8.23956 45.8854 8.23956 46.5055C8.23956 47.1063 8.36552 47.5617 8.60776 47.8718C8.85 48.1818 9.18913 48.3369 9.62517 48.3369C10.0515 48.3369 10.3906 48.1818 10.6329 47.8718C10.8751 47.5714 11.0011 47.116 11.0011 46.5055Z" fill="#141514"/>
<path d="M16.8793 44.0996L14.9414 48.9056H14.1274L12.1992 44.0996H13.0713L14.5635 47.927L16.0363 44.0996H16.8793Z" fill="#141514"/>
<path d="M21.5987 46.5929H18.062C18.062 46.8836 18.1105 47.1452 18.1977 47.3681C18.2849 47.5909 18.4109 47.7653 18.5659 47.9107C18.7113 48.0463 18.8954 48.1529 19.0988 48.2208C19.3023 48.2886 19.5252 48.3273 19.7771 48.3273C20.1066 48.3273 20.436 48.2595 20.7654 48.1335C21.0949 48.0076 21.3274 47.8719 21.4728 47.746H21.5115V48.6277C21.2402 48.744 20.9592 48.8409 20.6782 48.9184C20.3972 48.9959 20.0969 49.0347 19.7868 49.0347C18.9922 49.0347 18.3721 48.8215 17.9264 48.3855C17.4807 47.9591 17.2578 47.339 17.2578 46.5541C17.2578 45.7693 17.471 45.1492 17.8973 44.6841C18.3237 44.219 18.8857 43.9961 19.5833 43.9961C20.2325 43.9961 20.7267 44.1899 21.0755 44.5678C21.4243 44.9457 21.5987 45.4786 21.5987 46.1763V46.5929ZM20.8139 45.9728C20.8139 45.5464 20.7073 45.217 20.4941 44.9844C20.281 44.7519 19.9612 44.6356 19.5349 44.6356C19.0988 44.6356 18.7597 44.7616 18.4981 45.0135C18.2462 45.2654 18.1008 45.5852 18.062 45.9631H20.8139V45.9728Z" fill="#141514"/>
<path d="M25.6797 44.9814H25.6409C25.5247 44.9524 25.4084 44.933 25.2921 44.9233C25.1758 44.9136 25.0499 44.9039 24.8949 44.9039C24.6429 44.9039 24.4007 44.9621 24.1778 45.0686C23.9453 45.1752 23.7224 45.3206 23.5092 45.495V48.9057H22.6953V44.1094H23.4995V44.8167C23.8193 44.5551 24.1003 44.3807 24.3522 44.2741C24.5945 44.1675 24.8464 44.1094 25.0983 44.1094C25.2437 44.1094 25.3406 44.1094 25.4084 44.1191C25.4762 44.1288 25.5634 44.1384 25.6894 44.1578V44.9814H25.6797Z" fill="#141514"/>
<path d="M30.4081 48.9067H29.6038V46.1742C29.6038 45.9514 29.5941 45.7479 29.5651 45.5541C29.536 45.3603 29.4875 45.2053 29.4197 45.0987C29.3519 44.9824 29.2453 44.8855 29.1096 44.8274C28.974 44.7692 28.7996 44.7402 28.5864 44.7402C28.3635 44.7402 28.131 44.7983 27.8984 44.9049C27.6562 45.0115 27.4237 45.1568 27.2105 45.3215V48.9067H26.4062V44.1103H27.2105V44.6433C27.4624 44.4398 27.724 44.2751 27.9953 44.1588C28.2667 44.0425 28.538 43.9844 28.8286 43.9844C29.3519 43.9844 29.7395 44.1394 30.0108 44.4495C30.2821 44.7595 30.4177 45.215 30.4177 45.7963V48.9067H30.4081Z" fill="#141514"/>
<path d="M38.7187 48.9067H37.9145V46.1742C37.9145 45.9707 37.9048 45.7673 37.8854 45.5735C37.866 45.3797 37.8272 45.2246 37.7691 45.1181C37.7013 44.9921 37.6044 44.9049 37.4881 44.8371C37.3621 44.7692 37.1877 44.7402 36.9552 44.7402C36.7323 44.7402 36.4998 44.7983 36.2769 44.9049C36.0541 45.0212 35.8215 45.1568 35.5986 45.3409C35.6083 45.4087 35.618 45.4863 35.618 45.5735C35.6277 45.6607 35.6277 45.7479 35.6277 45.8351V48.9067H34.8235V46.1742C34.8235 45.961 34.8138 45.7576 34.7944 45.5735C34.775 45.3797 34.7363 45.2343 34.6781 45.1181C34.6103 44.9921 34.5134 44.9049 34.3971 44.8371C34.2712 44.7789 34.0968 44.7402 33.8642 44.7402C33.6413 44.7402 33.4185 44.7983 33.2053 44.9049C32.9825 45.0115 32.7596 45.1568 32.5464 45.3215V48.9067H31.7422V44.1103H32.5464V44.6433C32.7984 44.4398 33.0503 44.2751 33.3022 44.1588C33.5541 44.0425 33.8158 43.9844 34.1064 43.9844C34.4359 43.9844 34.7072 44.0522 34.9398 44.1879C35.1626 44.3235 35.337 44.5173 35.4436 44.7595C35.7731 44.4882 36.0637 44.2848 36.3351 44.1685C36.6064 44.0425 36.897 43.9844 37.1974 43.9844C37.7207 43.9844 38.1082 44.1394 38.3602 44.4592C38.6121 44.7789 38.7381 45.2246 38.7381 45.7963V48.9067H38.7187Z" fill="#141514"/>
<path d="M44.1066 46.5929H40.5699C40.5699 46.8836 40.6183 47.1452 40.7055 47.3681C40.7927 47.5909 40.9187 47.7653 41.0737 47.9107C41.2191 48.0463 41.4032 48.1529 41.6066 48.2208C41.8101 48.2886 42.033 48.3273 42.2849 48.3273C42.6144 48.3273 42.9438 48.2595 43.2733 48.1335C43.6027 48.0076 43.8353 47.8719 43.9806 47.746H44.0194V48.6277C43.748 48.744 43.467 48.8409 43.186 48.9184C42.9051 48.9959 42.6047 49.0347 42.2946 49.0347C41.5001 49.0347 40.8799 48.8215 40.4342 48.3855C39.9885 47.9591 39.7656 47.339 39.7656 46.5541C39.7656 45.7693 39.9788 45.1492 40.4051 44.6841C40.8315 44.219 41.3935 43.9961 42.0911 43.9961C42.7403 43.9961 43.2345 44.1899 43.5833 44.5678C43.9321 44.9457 44.1066 45.4786 44.1066 46.1763V46.5929V46.5929ZM43.3217 45.9728C43.3217 45.5464 43.2151 45.217 43.0019 44.9844C42.7888 44.7519 42.469 44.6356 42.0427 44.6356C41.6066 44.6356 41.2675 44.7616 41.0059 45.0135C40.754 45.2654 40.6086 45.5852 40.5699 45.9631H43.3217V45.9728Z" fill="#141514"/>
<path d="M49.2049 48.9067H48.4007V46.1742C48.4007 45.9514 48.391 45.7479 48.3619 45.5541C48.3329 45.3603 48.2844 45.2053 48.2166 45.0987C48.1488 44.9824 48.0422 44.8855 47.9065 44.8274C47.7709 44.7692 47.5965 44.7402 47.3833 44.7402C47.1604 44.7402 46.9376 44.7983 46.6953 44.9049C46.4531 45.0115 46.2205 45.1568 46.0074 45.3215V48.9067H45.2031V44.1103H46.0074V44.6433C46.2593 44.4398 46.5209 44.2751 46.7922 44.1588C47.0635 44.0425 47.3348 43.9844 47.6255 43.9844C48.1391 43.9844 48.5363 44.1394 48.8077 44.4495C49.079 44.7595 49.2146 45.215 49.2146 45.7963V48.9067H49.2049Z" fill="#141514"/>
<path d="M53.0038 48.8601C52.8487 48.8988 52.684 48.9376 52.5096 48.957C52.3352 48.986 52.1705 48.9957 52.0348 48.9957C51.5503 48.9957 51.1724 48.8601 50.9205 48.5984C50.6686 48.3368 50.5426 47.9105 50.5426 47.3291V44.7808H50V44.1025H50.5426V42.7266H51.3469V44.1025H53.0135V44.7808H51.3469V46.9706C51.3469 47.2225 51.3565 47.4163 51.3662 47.5617C51.3759 47.707 51.4147 47.833 51.4825 47.9589C51.5406 48.0752 51.6279 48.1527 51.7441 48.2109C51.8507 48.2593 52.0251 48.2884 52.248 48.2884C52.3836 48.2884 52.5193 48.269 52.6646 48.2302C52.81 48.1915 52.9069 48.1624 52.9747 48.1333H53.0135V48.8601H53.0038Z" fill="#141514"/>
</svg>
